<?xml version="1.0" encoding="UTF-8"?>
<svg id="Layer_1" data-name="Layer 1" fill="#F5F5F5" xmlns="http://www.w3.org/2000/svg" viewBox="0 0 889.96 739.78">
  <path d="M444.22,146.45c-62.36,0-124.71,0-187.07,0-59.86,0-119.73-.16-179.59,.1-17.36,.08-33.04-3.94-47.33-14.03C2.95,113.26-7.67,75.11,6.07,44.46,18.78,16.14,44.76-.01,75.8,.13c54.93,.25,109.87,.02,164.81,.02,54.94,0,109.87,.05,164.81,.05,54.94,0,109.87-.05,164.81-.05,54.94,0,109.87,.04,164.81,.05,27.14,0,54.28-.47,81.4,.05,29.64,.57,52.13,14.17,65.28,40.79,13.25,26.81,10.39,53.11-7.56,76.99-14.51,19.31-34.69,28.47-58.78,28.53-45.89,.11-91.79-.05-137.68-.05-62.19,0-124.39,.06-186.58,.09-15.63,0-31.27,0-46.9,0,0-.05,0-.1,0-.15Z"/>
  <path d="M444.67,593.3c123.71,0,247.41-.02,371.12,0,42.09,0,74.95,33.88,73.68,75.85-1.16,38.37-33.14,70.25-71.57,70.45-61.92,.31-123.83,.1-185.75,.1-98.7,0-197.4,0-296.11,0-87.38,0-174.77,0-262.15,.01-34.69,0-64.21-23.34-72.03-57.06-7.69-33.15,8.75-67.17,39.86-82.18,10.16-4.9,20.95-7.23,32.31-7.23,123.54,.05,247.08,.03,370.62,.03Z"/>
  <path d="M445.27,443.1c-94.89,0-189.78,0-284.68,0-29.13,0-58.27-.01-87.4,0-30.65,.01-58.83-19.73-68.6-48.08-10.61-30.81-1.54-63.36,23.35-82.6,13.57-10.49,29.02-15.7,46.33-15.66,55.6,.13,111.21,.04,166.81,.05,54.94,.01,109.88,.06,164.81,.06,54.94,0,109.88-.06,164.81-.06,54.94,0,109.88,.05,164.81,.06,26.3,0,52.61-.06,78.91-.07,51.09-.02,85.66,45.45,71.92,94.57-8.04,28.74-36.97,51.37-67.03,51.59-43.12,.32-86.23,.11-129.35,.11-44.95,0-89.89-.04-134.84-.05-36.62,0-73.25,0-109.87,0v.07Z"/>
</svg>